<svg width="64" height="40" viewBox="0 0 64 40" fill="none" xmlns="http://www.w3.org/2000/svg">
<path fill-rule="evenodd" clip-rule="evenodd" d="M0 0.0861611C2.31513 0.0861611 4.60838 0.0642916 6.88418 0.0425885C12.137 -0.00750522 17.2969 -0.0567118 22.4179 0.16594C29.6777 0.485055 33.8262 9.65962 29.9968 16.2015C29.6686 16.8032 29.2279 17.3299 28.9576 17.653L28.9575 17.653C28.8336 17.8011 28.7455 17.9065 28.7204 17.9566C29.1335 19.1442 29.605 20.2817 30.0648 21.3907L30.0648 21.3907C31.0257 23.7086 31.935 25.902 32.1509 28.1683C32.7093 34.4708 28.481 39.4171 22.2583 39.7362C16.9661 40.0777 11.7145 40.0132 6.41667 39.9482C4.28714 39.922 2.15013 39.8958 0 39.8958V0.0861611ZM8.297 32.3168C9.54487 32.3168 10.7558 32.326 11.9425 32.3351C14.2456 32.3526 16.4569 32.3695 18.6682 32.3168C21.6998 32.237 23.6145 30.4021 23.7741 27.6099C23.8539 24.9772 22.019 22.7434 19.1469 22.504C16.6503 22.3338 14.1132 22.3653 11.5072 22.3978C10.4491 22.4109 9.37972 22.4242 8.297 22.4242V32.3168ZM8.05766 15.5633C9.07704 15.5633 10.0652 15.5685 11.0313 15.5736H11.0314C13.8459 15.5884 16.4743 15.6023 19.1469 15.4835C21.3807 15.4037 22.8167 14.0475 22.8965 11.6541C22.9763 9.34051 21.8594 7.66515 19.466 7.50559C16.7968 7.33522 14.1276 7.36698 11.4008 7.39943H11.4008L11.4008 7.39943C10.2971 7.41257 9.184 7.42581 8.05766 7.42581V10.4574V15.5633ZM62.9456 29.6845C60.7117 37.1039 54.5688 40.8535 46.91 39.8164C40.1288 38.8591 34.9432 33.115 35.023 26.254L35.0242 26.2037C35.1036 23.0268 35.1888 19.6177 36.3792 16.8401C39.1715 10.1387 46.8302 7.0273 53.6912 9.18133C60.7118 11.4151 64.5411 18.0368 63.4242 26.3338H43.1604C42.4424 29.2856 43.5593 31.679 45.7931 32.397C48.0269 33.115 51.6967 33.4341 52.8934 32.1576C55.3513 29.5057 58.0189 29.5807 60.8962 29.6615C61.5679 29.6804 62.251 29.6996 62.9456 29.6845ZM55.6059 20.7493C54.6486 16.4412 52.335 14.9254 47.8674 15.4839C44.9953 15.8827 43.32 17.7177 43.3997 20.7493H55.6059ZM40.5277 1.28264V5.90981H57.8397V1.28264H40.5277Z" fill="#C9C9C9"/>
</svg>
