<svg width="19" height="40" viewBox="0 0 19 40" fill="none" xmlns="http://www.w3.org/2000/svg">
<path d="M0 13.1794C1.38152 13.1794 2.62013 13.1794 4.14457 13.1794C4.14457 10.988 4.14457 8.93955 4.14457 6.89109C4.14457 3.50874 7.05053 0.269305 10.4805 0.0787497C13.1483 -0.0641664 15.8161 0.031111 18.5791 0.031111C18.5791 2.50832 18.5791 4.89026 18.5791 7.55803C17.1976 7.55803 15.8161 7.60567 14.4822 7.55803C13.1483 7.51039 12.4813 8.03442 12.5766 9.41594C12.6243 10.6069 12.5766 11.7979 12.5766 13.1794C14.5775 13.1794 16.483 13.1794 18.6744 13.1794C18.4838 15.4184 18.3409 17.4669 18.1027 19.4677C18.0551 19.8012 17.2929 20.1823 16.8165 20.2299C15.4826 20.3252 14.1487 20.2776 12.6243 20.2776C12.6243 26.8993 12.6243 33.3782 12.6243 40C9.76594 40 7.14581 40 4.28749 40C4.28749 33.6164 4.28749 27.1852 4.28749 20.5634C2.81069 20.5634 1.4768 20.5634 0.0476387 20.5634C0 18.0862 0 15.7995 0 13.1794Z" fill="#C9C9C9"/>
</svg>
