<svg width="40" height="40" viewBox="0 0 40 40" fill="none" xmlns="http://www.w3.org/2000/svg">
<path fill-rule="evenodd" clip-rule="evenodd" d="M5.07754 0C2.25669 0 0 2.48235 0 5.41605C0 8.34974 2.48235 10.6628 5.30321 10.6064C8.18049 10.4936 10.4936 8.06765 10.4372 5.19038C10.3808 2.36952 7.95482 0 5.07754 0ZM39.8869 39.8873H31.1422C31.1422 38.6683 31.1458 37.4565 31.1493 36.2509V36.2502V36.2501C31.1599 32.6572 31.1703 29.1197 31.0858 25.6138C31.0294 24.3162 30.9165 22.5672 30.1267 21.9466C28.9984 21.044 27.0802 20.367 25.7262 20.649C23.9772 20.9311 22.6232 22.5108 22.6232 24.5982C22.595 26.7985 22.595 29.0129 22.595 31.2273C22.595 33.4416 22.595 35.656 22.5668 37.8563C22.5668 38.4473 22.5238 39.0383 22.4754 39.7044L22.454 40.0001H13.935V13.2584H22.3976C22.4369 13.7697 22.5036 14.3085 22.5596 14.7599L22.5596 14.7601L22.5596 14.7603C22.5839 14.9563 22.6062 15.1358 22.6232 15.2894C23.1932 15.0519 23.7632 14.7833 24.3357 14.5136L24.3357 14.5135C25.8031 13.822 27.2869 13.1228 28.8291 12.9199C35.3171 11.848 39.492 15.233 39.8305 21.9466C40.0252 26.0368 39.9779 30.127 39.93 34.2729V34.2729C39.9085 36.1315 39.8869 38.0013 39.8869 39.8873ZM1.07188 13.2015H9.3652V39.774H1.07188V13.2015Z" fill="#C9C9C9"/>
</svg>
