<svg width="40" height="40" viewBox="0 0 40 40" fill="none" xmlns="http://www.w3.org/2000/svg">
<path fill-rule="evenodd" clip-rule="evenodd" d="M39.8491 20.1377C39.8491 21.1838 39.8546 22.2298 39.8602 23.2758V23.2764C39.8712 25.3683 39.8823 27.4602 39.8491 29.5521C39.6997 34.9815 35.8144 39.5143 30.4846 39.7634C23.4113 40.0623 16.2385 40.1121 9.16529 39.7136C3.83547 39.3649 0.0498114 34.583 0 29.2532V11.2215C0 5.29393 3.83547 0.56185 9.76303 0.213171C16.7864 -0.135509 23.8596 -0.0358863 30.883 0.362605C35.914 0.661473 39.6997 5.24412 39.8491 10.3249C39.9154 12.5147 39.8934 14.6825 39.8713 16.8576V16.8577C39.8602 17.9479 39.8491 19.04 39.8491 20.1377ZM19.8747 35.1807C20.906 35.1807 21.9317 35.1863 22.9556 35.1918H22.9559C24.998 35.2029 27.0329 35.2139 29.0898 35.1807C32.8257 35.0811 35.1668 32.6902 35.1668 28.9543V11.1717C35.1668 7.43582 32.8755 4.94525 29.1895 4.84563C23.0627 4.74601 16.9359 4.74601 10.7593 4.84563C7.17284 4.94525 4.78189 7.3362 4.73208 10.9724C4.63246 16.9498 4.58264 22.977 4.73208 28.9543C4.8317 32.9392 7.27246 35.1309 11.3072 35.1807C13.2018 35.214 15.1187 35.2029 17.0281 35.1918C17.9801 35.1863 18.9302 35.1807 19.8747 35.1807ZM20.1735 9.52791C25.9517 9.57772 30.5841 14.26 30.5841 20.0879C30.5343 25.9657 25.8022 30.5483 19.8249 30.4985C14.1464 30.4985 9.46411 25.8162 9.4143 20.1377C9.4143 14.1106 14.0468 9.52791 20.1735 9.52791ZM14.1962 20.1377C14.1962 23.3755 16.8362 25.9159 20.0739 25.9159C23.212 25.9159 25.9517 23.1762 25.9517 20.0381C25.9517 16.8502 23.1622 14.1106 19.8747 14.1604C16.6369 14.2102 14.1464 16.8004 14.1962 20.1377ZM30.634 12.4671C32.228 12.3176 33.0748 11.3214 33.274 9.67764C33.025 8.23311 32.4272 7.08745 30.7336 7.03763C29.1397 6.98782 27.7948 8.1833 27.7948 9.67764C27.7948 11.0724 29.2393 12.6165 30.634 12.4671Z" fill="#C9C9C9"/>
</svg>
