<?xml version="1.0" encoding="utf-8"?>
<!-- Generator: Adobe Illustrator 27.1.1, SVG Export Plug-In . SVG Version: 6.00 Build 0)  -->
<svg version="1.1" id="Layer_1" xmlns="http://www.w3.org/2000/svg" xmlns:xlink="http://www.w3.org/1999/xlink" x="0px" y="0px"
	 viewBox="0 0 57 57" style="enable-background:new 0 0 57 57;" xml:space="preserve">
<style type="text/css">
	.st0{fill:#FFFFFF;}
</style>
<rect class="st0" width="57" height="57"/>
<path d="M22.9,36.3H12.5l-1.8,5.1H6.4l8.9-24.9H20l8.9,24.9h-4.3L22.9,36.3z M21.7,32.9l-4-11.6l-4.1,11.6H21.7z M46.4,16.5v17.9
	c0,2.2-0.7,4-2,5.3c-1.3,1.3-3.1,1.9-5.3,1.9s-4-0.6-5.3-1.9c-1.3-1.3-2-3-2-5.3h4.1c0,1.1,0.3,2,0.8,2.6c0.5,0.6,1.3,1,2.4,1
	c1,0,1.8-0.3,2.4-1c0.5-0.7,0.8-1.5,0.8-2.6V16.5H46.4z"/>
</svg>
