<svg width="41" height="40" viewBox="0 0 41 40" fill="none" xmlns="http://www.w3.org/2000/svg">
<path fill-rule="evenodd" clip-rule="evenodd" d="M0.440599 38.4728C0.296038 38.9732 0.149115 39.4816 0 40C0.668419 39.8352 1.32225 39.6722 1.96441 39.5121C4.54772 38.8681 6.94201 38.2713 9.3363 37.7924C10.4401 37.5624 11.7279 37.6544 12.7857 38.0684C16.327 39.4941 19.9604 39.908 23.5937 39.2641C34.7697 37.2865 41.6684 27.1683 39.6908 15.9464C37.8051 5.13834 26.3992 -2.17432 15.7751 0.585174C3.40338 3.7586 -2.7595 16.5443 2.43756 28.1801C2.7595 28.916 2.7595 29.9278 2.57553 30.7097C1.95328 33.2376 1.23236 35.7326 0.440599 38.4728ZM6.8225 33.9246C6.51253 33.9796 6.17315 34.0399 5.79495 34.1131C7.98108 30.8124 6.97108 28.0711 5.89277 25.1444C5.81413 24.931 5.73513 24.7165 5.65697 24.5008C2.66752 16.0384 7.6806 7.16198 16.419 4.77041C25.0654 2.37885 33.5739 7.89784 35.5975 17.0962C37.3452 25.0067 31.2743 33.6991 23.0418 35.0329C19.9144 35.5388 16.649 35.4008 13.8435 33.7911C12.1418 32.8253 10.6241 32.7793 8.92238 33.4232C8.31413 33.6597 7.68106 33.7721 6.8225 33.9246ZM25.5713 22.4767C24.2376 21.6489 23.1338 21.8788 22.03 23.2126C21.5675 22.7661 21.1106 22.3417 20.663 21.926C19.8198 21.1428 19.0098 20.3905 18.2587 19.5792C17.4308 18.7514 16.649 17.8776 17.8907 16.6818C18.1207 16.4518 18.0287 15.7159 17.8907 15.302C17.6148 14.4052 17.2612 13.5084 16.9077 12.6115C16.7898 12.3126 16.672 12.0136 16.557 11.7147C16.419 11.3007 16.0971 10.6569 15.9591 10.6569C15.7101 10.697 15.461 10.7344 15.2127 10.7716C14.0395 10.9477 12.8827 11.1212 11.8198 11.5767C10.716 12.0366 10.2561 13.1404 10.716 14.4742C13.1536 21.5109 17.7068 26.478 24.8355 28.9155C27.365 29.7894 29.2967 28.5476 29.6186 25.8801C29.7566 24.5463 29.6186 23.4425 27.9169 23.2586C27.0891 23.1666 26.2612 22.8906 25.5713 22.4767Z" fill="#C9C9C9"/>
</svg>
