<svg width="57" height="40" viewBox="0 0 57 40" fill="none" xmlns="http://www.w3.org/2000/svg">
<path d="M28.2839 39.1929C21.6929 39.1929 15.1019 39.3947 8.5109 39.1257C3.46676 38.9239 0.305769 35.7629 0.171258 30.6515C-0.0977622 23.2535 -0.0305071 15.7881 0.238514 8.32282C0.373024 3.27869 4.07206 0.0504414 9.11619 0.0504414C22.0292 -0.0168138 34.8749 -0.0168138 47.7879 0.0504414C52.832 0.0504414 56.3293 3.07692 56.4638 8.12106C56.7328 15.9227 56.6656 23.7243 56.4638 31.4586C56.3293 35.8302 53.2356 38.7894 48.864 39.0584C42.004 39.462 35.1439 39.6637 28.2839 40C28.2839 39.731 28.2839 39.462 28.2839 39.1929ZM22.769 27.356C27.6786 24.5313 32.1847 21.9084 36.9598 19.1509C32.0502 16.3262 27.5441 13.7705 22.769 11.013C22.769 16.5952 22.769 21.7739 22.769 27.356Z" fill="#C9C9C9"/>
</svg>
