<?xml version="1.0" encoding="UTF-8"?>
<svg id="Layer_1" data-name="Layer 1" xmlns="http://www.w3.org/2000/svg" viewBox="0 0 57 57">
  <defs>
    <style>
      .cls-1 {
        fill: #fff;
      }
    </style>
  </defs>
  <rect class="cls-1" width="57" height="57"/>
  <path d="m22.9,36.3h-10.4l-1.8,5.1h-4.3l8.9-24.9h4.7l8.9,24.9h-4.3l-1.7-5.1Zm-1.2-3.4l-4-11.6-4.1,11.6h8.1Zm24.7-16.4v17.9c0,2.2-.7,4-2,5.3s-3.1,1.9-5.3,1.9-4-.6-5.3-1.9c-1.3-1.3-2-3-2-5.3h4.1c0,1.1.3,2,.8,2.6s1.3,1,2.4,1c1,0,1.8-.3,2.4-1,.5-.7.8-1.5.8-2.6v-17.9h4.1Z"/>
</svg>